<svg width="79" height="17" viewBox="0 0 79 17" fill="none" xmlns="http://www.w3.org/2000/svg">
<path fill-rule="evenodd" clip-rule="evenodd" d="M28.3528 8.4997C28.3528 5.71878 29.7758 3.49414 32.3418 3.49414C34.9084 3.49414 36.3308 5.71878 36.3308 8.4997C36.3308 11.2811 34.9079 13.5053 32.3423 13.5053C29.7758 13.5053 28.3528 11.2811 28.3528 8.4997ZM32.3418 12.1169C33.3399 12.1169 33.7648 10.4481 33.7648 8.50347C33.7648 6.55792 33.3366 4.89003 32.3418 4.89003C31.3471 4.89003 30.9189 6.55839 30.9189 8.50347C30.9155 10.4481 31.3437 12.1169 32.3418 12.1169ZM1.8512 3.63581V6.27836H1.99282L3.84402 3.63581H6.40671L2.98755 6.69297L3.12917 6.83133L9.39811 3.6325V5.85714L3.84065 7.80222V7.94011L9.39811 7.45467V9.54142L3.84065 9.05597V9.19434L9.39811 11.1389V13.3641L3.12917 10.1648L2.98755 10.3031L6.40671 13.3603H3.84402L1.99282 10.7177H1.8512V13.3603H0V3.6292H1.8512V3.63581ZM11.1144 3.63581H13.536L13.3944 9.47389H13.536L16.3853 3.63581H18.5231V13.3674H16.102L16.2437 7.52881H16.102L13.2518 13.3678H11.114V3.63581H11.1144ZM22.6537 3.63581H20.2327V13.3674H22.6537V9.05597H24.6466V13.3674H27.0676V3.63581H24.6466V7.39092H22.6537V3.63581ZM44.451 3.63581H37.6156V13.3674H40.0371V5.30417H42.0299V13.3674H44.451V3.63581ZM45.7323 8.4997C45.7323 5.71878 47.1553 3.49414 49.7218 3.49414C52.2845 3.49414 53.7108 5.71878 53.7108 8.4997C53.7108 11.2811 52.2879 13.5053 49.7218 13.5053C47.1591 13.5053 45.7323 11.2811 45.7323 8.4997ZM49.7218 12.1169C50.7199 12.1169 51.1448 10.4481 51.1448 8.50347C51.1448 6.55792 50.7166 4.89003 49.7218 4.89003C48.7237 4.89003 48.2989 6.55839 48.2989 8.50347C48.2989 10.4481 48.7237 12.1169 49.7218 12.1169ZM57.4132 3.63581H54.9922V13.3674H57.13L59.9798 7.52881H60.1214L59.9798 13.3674H62.4008V3.63581H60.263L57.4132 9.47389H57.2716L57.4132 3.63581ZM68.8148 10.0302L71.0942 10.3064C70.666 12.252 69.6713 13.5053 67.5469 13.5053C64.9842 13.5053 63.6856 11.2811 63.6856 8.4997C63.6856 5.71878 64.9809 3.49414 67.5469 3.49414C69.6265 3.49414 70.666 4.74506 71.0942 6.55178L68.8148 7.10758C68.6732 6.13339 68.2584 4.88342 67.5469 4.88342C66.6938 4.88342 66.2516 6.55178 66.2516 8.49639C66.2516 10.4278 66.6938 12.1098 67.5469 12.1098C68.2449 12.1169 68.6693 11.0044 68.8148 10.0302ZM74.5134 3.63628H72.2339V13.3674H74.5134V9.05597H74.655L76.3646 13.3674H79L76.5062 8.36181L78.9273 3.63581H76.5062L74.655 7.9472H74.5134V3.63581V3.63628Z" fill="#747587"/>
</svg>
